# xmcd
#
# Track frame offsets:
#	150
#	10457
#	26320
#	41341
#	55168
#	70351
#	81787
#	94261
#	109311
#	123217
#
# Disc length: 1843 seconds
#
# Revision: 1
# Processed by: cddbd v1.5.1PL0 Copyright (c) Steve Scherf et al.
# Submitted via: audiograbber 1.83.01
#
DISCID=7b07310a
DTITLE=David Bernatchez - Moitié-Moitié
DYEAR=2003
DGENRE=Country
TTITLE0=J'aime à chanter
TTITLE1=The last blues song
TTITLE2=Le chant des Ïles
TTITLE3=That's all right
TTITLE4=La rose de picardi
TTITLE5=Keep your hands to yourself
TTITLE6=Les trois cloches
TTITLE7=She's somekind of wonderful
TTITLE8=Infame destin
TTITLE9=No more boleros
EXTD=
EXTT0=
EXTT1=
EXTT2=
EXTT3=
EXTT4=
EXTT5=
EXTT6=
EXTT7=
EXTT8=
EXTT9=
PLAYORDER=
